# xmcd
# 
# Track frame offsets:
#     150
#     12752
#     24847
#     39115
#     51960
#     64152
#     75117
#     87820
#     100290
#     110942
#     123140
#     134775
#     148672
#     168722
#     182432
#     209152
#     220970
#     251107
# 
# Disc length: 3610
# 
# Revision: 7
# Processed by: cddbd v1.5.2PL0 Copyright (c) Steve Scherf et al.
# Submitted via: fre:ac v1.0.27
# 
DISCID=fe0e1812
DTITLE=Willie Dixon - The Chess Box [CD2]
DYEAR=1997
DGENRE=Blues
TTITLE0=Howlin' Wolf - Spoonful
TTITLE1=Otis Rush - You Know my Love
TTITLE2=Bo Diddley - You Can't Judge a Book by It's Cover
TTITLE3=Howlin' Wolf - I Ain't Superstitions
TTITLE4=Muddy Waters - You Need Love
TTITLE5=Howlin' Wolf - Little Red Rooster
TTITLE6=Howlin' Wolf - Back Door Man
TTITLE7=Little Walter - Dead Presidents
TTITLE8=Howlin' Wolf - Hidden Charms
TTITLE9=Muddy Waters - You Shook Me
TTITLE10=Sonny Boy Williamson - Bring it on Home
TTITLE11=Howlin' Wolf - 300 Pounds of Joy
TTITLE12=Willie Dixon - Weak Brain, Narrow Mind
TTITLE13=Koko Taylor - Wang Dang Doodle
TTITLE14=Muddy Waters - The Same Thing
TTITLE15=Howlin' Wolf - Built For Comfort
TTITLE16=Little Milton - I Can't Quit You Baby
TTITLE17=Koko Taylor - Insane Asylum
EXTD=
EXTT0=
EXTT1=
EXTT2=
EXTT3=
EXTT4=
EXTT5=
EXTT6=
EXTT7=
EXTT8=
EXTT9=
EXTT10=
EXTT11=
EXTT12=
EXTT13=
EXTT14=
EXTT15=
EXTT16=
EXTT17=
PLAYORDER=
